<?xml version="1.0" encoding="utf-8" standalone="no"?>
<!DOCTYPE svg PUBLIC "-//W3C//DTD SVG 1.1//EN"
  "http://www.w3.org/Graphics/SVG/1.1/DTD/svg11.dtd">
<!-- Created with matplotlib (http://matplotlib.org/) -->
<svg height="234pt" version="1.1" viewBox="0 0 646 234" width="646pt" xmlns="http://www.w3.org/2000/svg" xmlns:xlink="http://www.w3.org/1999/xlink">
 <defs>
  <style type="text/css">
*{stroke-linecap:square;stroke-linejoin:round;}
  </style>
 </defs>
 <g id="figure_1">
  <g id="patch_1">
   <path d="
M0 234
L646.2 234
L646.2 0
L0 0
z
" style="fill:#ffffff;"/>
  </g>
  <g id="axes_1">
   <g id="patch_2">
    <path d="
M80.775 150.941
L581.58 150.941
L581.58 23.4
L80.775 23.4
z
" style="fill:#ffffff;"/>
   </g>
   <g id="patch_3">
    <path clip-path="url(#pd60e087a6e)" d="
M80.775 150.941
L80.775 142.58
L82.8617 135.494
L84.9484 142.863
L87.0351 143.855
L89.1218 147.256
L91.2084 148.248
L93.2951 139.604
L95.3818 145.414
L97.4685 145.839
L99.5552 145.272
L101.642 144.28
L103.729 147.114
L105.815 145.414
L107.902 146.973
L109.989 147.114
L112.075 144.705
L114.162 117.922
L116.249 146.548
L118.335 143.005
L120.422 141.021
L122.509 139.745
L124.595 138.328
L126.682 140.171
L128.769 142.863
L130.856 141.588
L132.942 139.745
L135.029 136.77
L137.116 137.762
L139.202 139.887
L141.289 141.871
L143.376 136.486
L145.462 137.478
L147.549 143.713
L149.636 145.556
L151.722 142.438
L153.809 136.061
L155.896 141.163
L157.982 135.919
L160.069 126.566
L162.156 138.895
L164.242 137.195
L166.329 133.085
L168.416 145.414
L170.503 138.895
L172.589 128.692
L174.676 129.967
L176.763 137.478
L178.849 139.745
L180.936 129.826
L183.023 126.85
L185.109 129.117
L187.196 123.165
L189.283 129.542
L191.369 119.622
L193.456 131.243
L195.543 131.668
L197.63 137.336
L199.716 138.895
L201.803 142.155
L203.89 143.005
L205.976 139.037
L208.063 136.911
L210.15 139.32
L212.236 137.195
L214.323 142.58
L216.41 145.272
L218.496 135.211
L220.583 134.644
L222.67 133.794
L224.756 131.384
L226.843 130.534
L228.93 135.352
L231.017 119.622
L233.103 127.7
L235.19 124.724
L237.277 125.999
L239.363 128.409
L241.45 125.716
L243.537 134.502
L245.623 132.802
L247.71 134.36
L249.797 132.235
L251.883 135.636
L253.97 136.203
L256.057 139.179
L258.143 132.66
L260.23 134.786
L262.317 135.919
L264.404 138.753
L266.49 143.288
L268.577 129.826
L270.664 143.713
L272.75 138.895
L274.837 138.895
L276.924 141.446
L279.01 131.101
L281.097 123.165
L283.184 124.724
L285.27 124.441
L287.357 127.558
L289.444 124.299
L291.53 119.481
L293.617 105.593
L295.704 113.529
L297.791 111.12
L299.877 111.261
L301.964 107.293
L304.051 116.08
L306.137 120.756
L308.224 118.064
L310.311 120.048
L312.397 121.323
L314.484 122.173
L316.571 108.144
L318.657 110.695
L320.744 102.759
L322.831 84.3361
L324.917 83.6276
L327.004 70.8735
L329.091 53.8681
L331.178 62.5125
L333.264 31.3359
L335.351 36.7209
L337.438 53.1595
L339.524 57.2691
L341.611 36.8626
L343.698 46.2156
L345.784 56.4189
L347.871 54.7183
L349.958 41.5391
L352.044 94.3977
L354.131 95.8148
L356.218 100.491
L358.304 95.3896
L360.391 108.569
L362.478 94.2559
L364.565 113.387
L366.651 115.513
L368.738 120.331
L370.825 106.868
L372.911 76.6837
L374.998 72.7157
L377.085 78.3842
L379.171 71.582
L381.258 78.9511
L383.345 63.5045
L385.431 72.4323
L387.518 66.9056
L389.605 76.2585
L391.691 77.2505
L393.778 80.6516
L395.865 96.3816
L397.951 103.892
L400.038 95.6731
L402.125 105.026
L404.212 120.898
L406.298 115.371
L408.385 118.63
L410.472 126.141
L412.558 128.267
L414.645 123.732
L416.732 126.425
L418.818 119.622
L420.905 50.6087
L422.992 115.938
L425.078 89.7212
L427.165 110.978
L429.252 111.828
L431.339 110.553
L433.425 102.334
L435.512 109.844
L437.599 108.144
L439.685 103.042
L441.772 93.5474
L443.859 101.058
L445.945 112.253
L448.032 110.695
L450.119 117.638
L452.205 128.409
L454.292 127.7
L456.379 131.101
L458.465 130.534
L460.552 123.307
L462.639 132.235
L464.726 131.668
L466.812 131.81
L468.899 136.911
L470.986 120.473
L473.072 131.951
L475.159 102.759
L477.246 118.772
L479.332 114.237
L481.419 113.245
L483.506 106.018
L485.592 105.735
L487.679 117.922
L489.766 120.756
L491.852 107.435
L493.939 118.064
L496.026 121.89
L498.112 129.117
L500.199 115.513
L502.286 134.36
L504.373 125.716
L506.459 134.927
L508.546 136.486
L510.633 129.259
L512.719 135.352
L514.806 119.764
L516.893 135.211
L518.979 134.927
L521.066 136.344
L523.153 122.598
L525.239 108.144
L527.326 119.481
L529.413 123.449
L531.5 120.473
L533.586 119.622
L535.673 124.015
L537.76 115.513
L539.846 110.128
L541.933 117.78
L544.02 128.409
L546.106 133.935
L548.193 134.077
L550.28 129.967
L552.366 136.77
L554.453 138.187
L556.54 142.013
L558.626 138.187
L560.713 137.903
L562.8 140.737
L564.887 144.139
L566.973 144.564
L569.06 144.139
L571.147 140.737
L573.233 145.414
L575.32 141.729
L577.407 142.863
L579.493 143.147
L581.58 135.352
L581.58 150.941
z
" style="fill:#0000ff;opacity:0.7;stroke:#000000;"/>
   </g>
   <g id="line2d_1">
    <path clip-path="url(#pd60e087a6e)" d="
M80.775 142.58
L82.8617 135.494
L84.9484 142.863
L87.0351 143.855
L89.1218 147.256
L91.2084 148.248
L93.2951 139.604
L95.3818 145.414
L97.4685 145.839
L99.5552 145.272
L101.642 144.28
L103.729 147.114
L105.815 145.414
L107.902 146.973
L109.989 147.114
L112.075 144.705
L114.162 117.922
L116.249 146.548
L118.335 143.005
L120.422 141.021
L122.509 139.745
L124.595 138.328
L126.682 140.171
L128.769 142.863
L130.856 141.588
L132.942 139.745
L135.029 136.77
L137.116 137.762
L141.289 141.871
L143.376 136.486
L145.462 137.478
L147.549 143.713
L149.636 145.556
L151.722 142.438
L153.809 136.061
L155.896 141.163
L157.982 135.919
L160.069 126.566
L162.156 138.895
L164.242 137.195
L166.329 133.085
L168.416 145.414
L170.503 138.895
L172.589 128.692
L174.676 129.967
L176.763 137.478
L178.849 139.745
L180.936 129.826
L183.023 126.85
L185.109 129.117
L187.196 123.165
L189.283 129.542
L191.369 119.622
L193.456 131.243
L195.543 131.668
L197.63 137.336
L199.716 138.895
L201.803 142.155
L203.89 143.005
L205.976 139.037
L208.063 136.911
L210.15 139.32
L212.236 137.195
L214.323 142.58
L216.41 145.272
L218.496 135.211
L220.583 134.644
L222.67 133.794
L224.756 131.384
L226.843 130.534
L228.93 135.352
L231.017 119.622
L233.103 127.7
L235.19 124.724
L237.277 125.999
L239.363 128.409
L241.45 125.716
L243.537 134.502
L245.623 132.802
L247.71 134.36
L249.797 132.235
L251.883 135.636
L253.97 136.203
L256.057 139.179
L258.143 132.66
L260.23 134.786
L262.317 135.919
L264.404 138.753
L266.49 143.288
L268.577 129.826
L270.664 143.713
L272.75 138.895
L274.837 138.895
L276.924 141.446
L279.01 131.101
L281.097 123.165
L283.184 124.724
L285.27 124.441
L287.357 127.558
L289.444 124.299
L291.53 119.481
L293.617 105.593
L295.704 113.529
L297.791 111.12
L299.877 111.261
L301.964 107.293
L304.051 116.08
L306.137 120.756
L308.224 118.064
L310.311 120.048
L312.397 121.323
L314.484 122.173
L316.571 108.144
L318.657 110.695
L320.744 102.759
L322.831 84.3361
L324.917 83.6276
L327.004 70.8735
L329.091 53.8681
L331.178 62.5125
L333.264 31.3359
L335.351 36.7209
L337.438 53.1595
L339.524 57.2691
L341.611 36.8626
L343.698 46.2156
L345.784 56.4189
L347.871 54.7183
L349.958 41.5391
L352.044 94.3977
L354.131 95.8148
L356.218 100.491
L358.304 95.3896
L360.391 108.569
L362.478 94.2559
L364.565 113.387
L366.651 115.513
L368.738 120.331
L370.825 106.868
L372.911 76.6837
L374.998 72.7157
L377.085 78.3842
L379.171 71.582
L381.258 78.9511
L383.345 63.5045
L385.431 72.4323
L387.518 66.9056
L389.605 76.2585
L391.691 77.2505
L393.778 80.6516
L395.865 96.3816
L397.951 103.892
L400.038 95.6731
L402.125 105.026
L404.212 120.898
L406.298 115.371
L408.385 118.63
L410.472 126.141
L412.558 128.267
L414.645 123.732
L416.732 126.425
L418.818 119.622
L420.905 50.6087
L422.992 115.938
L425.078 89.7212
L427.165 110.978
L429.252 111.828
L431.339 110.553
L433.425 102.334
L435.512 109.844
L437.599 108.144
L439.685 103.042
L441.772 93.5474
L443.859 101.058
L445.945 112.253
L448.032 110.695
L450.119 117.638
L452.205 128.409
L454.292 127.7
L456.379 131.101
L458.465 130.534
L460.552 123.307
L462.639 132.235
L464.726 131.668
L466.812 131.81
L468.899 136.911
L470.986 120.473
L473.072 131.951
L475.159 102.759
L477.246 118.772
L479.332 114.237
L481.419 113.245
L483.506 106.018
L485.592 105.735
L487.679 117.922
L489.766 120.756
L491.852 107.435
L493.939 118.064
L496.026 121.89
L498.112 129.117
L500.199 115.513
L502.286 134.36
L504.373 125.716
L506.459 134.927
L508.546 136.486
L510.633 129.259
L512.719 135.352
L514.806 119.764
L516.893 135.211
L518.979 134.927
L521.066 136.344
L525.239 108.144
L527.326 119.481
L529.413 123.449
L531.5 120.473
L533.586 119.622
L535.673 124.015
L537.76 115.513
L539.846 110.128
L541.933 117.78
L544.02 128.409
L546.106 133.935
L548.193 134.077
L550.28 129.967
L552.366 136.77
L554.453 138.187
L556.54 142.013
L558.626 138.187
L560.713 137.903
L562.8 140.737
L564.887 144.139
L566.973 144.564
L569.06 144.139
L571.147 140.737
L573.233 145.414
L575.32 141.729
L577.407 142.863
L579.493 143.147
L581.58 135.352
L581.58 135.352" style="fill:none;stroke:#0000ff;"/>
   </g>
   <g id="matplotlib.axis_1">
    <g id="xtick_1">
     <g id="line2d_2">
      <path clip-path="url(#pd60e087a6e)" d="
M107.902 150.941
L107.902 23.4" style="fill:none;stroke:#000000;stroke-dasharray:1.000000,3.000000;stroke-dashoffset:0.0;stroke-linecap:butt;stroke-width:0.5;"/>
     </g>
     <g id="line2d_3">
      <defs>
       <path d="
M0 0
L0 -4" id="mcb557df647" style="stroke:#000000;stroke-linecap:butt;stroke-width:0.5;"/>
      </defs>
      <g>
       <use style="stroke:#000000;stroke-linecap:butt;stroke-width:0.5;" x="107.9019375" xlink:href="#mcb557df647" y="150.940708317"/>
      </g>
     </g>
     <g id="line2d_4">
      <defs>
       <path d="
M0 0
L0 4" id="mdad270ee8e" style="stroke:#000000;stroke-linecap:butt;stroke-width:0.5;"/>
      </defs>
      <g>
       <use style="stroke:#000000;stroke-linecap:butt;stroke-width:0.5;" x="107.9019375" xlink:href="#mdad270ee8e" y="23.4"/>
      </g>
     </g>
     <g id="text_1">
      <!-- 12/10/25 -->
      <defs>
       <path d="
M12.4062 8.29688
L28.5156 8.29688
L28.5156 63.9219
L10.9844 60.4062
L10.9844 69.3906
L28.4219 72.9062
L38.2812 72.9062
L38.2812 8.29688
L54.3906 8.29688
L54.3906 0
L12.4062 0
z
" id="DejaVuSans-31"/>
       <path d="
M31.7812 66.4062
Q24.1719 66.4062 20.3281 58.9062
Q16.5 51.4219 16.5 36.375
Q16.5 21.3906 20.3281 13.8906
Q24.1719 6.39062 31.7812 6.39062
Q39.4531 6.39062 43.2812 13.8906
Q47.125 21.3906 47.125 36.375
Q47.125 51.4219 43.2812 58.9062
Q39.4531 66.4062 31.7812 66.4062
M31.7812 74.2188
Q44.0469 74.2188 50.5156 64.5156
Q56.9844 54.8281 56.9844 36.375
Q56.9844 17.9688 50.5156 8.26562
Q44.0469 -1.42188 31.7812 -1.42188
Q19.5312 -1.42188 13.0625 8.26562
Q6.59375 17.9688 6.59375 36.375
Q6.59375 54.8281 13.0625 64.5156
Q19.5312 74.2188 31.7812 74.2188" id="DejaVuSans-30"/>
       <path d="
M10.7969 72.9062
L49.5156 72.9062
L49.5156 64.5938
L19.8281 64.5938
L19.8281 46.7344
Q21.9688 47.4688 24.1094 47.8281
Q26.2656 48.1875 28.4219 48.1875
Q40.625 48.1875 47.75 41.5
Q54.8906 34.8125 54.8906 23.3906
Q54.8906 11.625 47.5625 5.09375
Q40.2344 -1.42188 26.9062 -1.42188
Q22.3125 -1.42188 17.5469 -0.640625
Q12.7969 0.140625 7.71875 1.70312
L7.71875 11.625
Q12.1094 9.23438 16.7969 8.0625
Q21.4844 6.89062 26.7031 6.89062
Q35.1562 6.89062 40.0781 11.3281
Q45.0156 15.7656 45.0156 23.3906
Q45.0156 31 40.0781 35.4375
Q35.1562 39.8906 26.7031 39.8906
Q22.75 39.8906 18.8125 39.0156
Q14.8906 38.1406 10.7969 36.2812
z
" id="DejaVuSans-35"/>
       <path d="
M19.1875 8.29688
L53.6094 8.29688
L53.6094 0
L7.32812 0
L7.32812 8.29688
Q12.9375 14.1094 22.625 23.8906
Q32.3281 33.6875 34.8125 36.5312
Q39.5469 41.8438 41.4219 45.5312
Q43.3125 49.2188 43.3125 52.7812
Q43.3125 58.5938 39.2344 62.25
Q35.1562 65.9219 28.6094 65.9219
Q23.9688 65.9219 18.8125 64.3125
Q13.6719 62.7031 7.8125 59.4219
L7.8125 69.3906
Q13.7656 71.7812 18.9375 73
Q24.125 74.2188 28.4219 74.2188
Q39.75 74.2188 46.4844 68.5469
Q53.2188 62.8906 53.2188 53.4219
Q53.2188 48.9219 51.5312 44.8906
Q49.8594 40.875 45.4062 35.4062
Q44.1875 33.9844 37.6406 27.2188
Q31.1094 20.4531 19.1875 8.29688" id="DejaVuSans-32"/>
       <path d="
M25.3906 72.9062
L33.6875 72.9062
L8.29688 -9.28125
L0 -9.28125
z
" id="DejaVuSans-2f"/>
      </defs>
      <g transform="translate(103.7978623 205.675186286)rotate(-70.0)scale(0.12 -0.12)">
       <use xlink:href="#DejaVuSans-31"/>
       <use x="63.623046875" xlink:href="#DejaVuSans-32"/>
       <use x="127.24609375" xlink:href="#DejaVuSans-2f"/>
       <use x="160.9375" xlink:href="#DejaVuSans-31"/>
       <use x="224.560546875" xlink:href="#DejaVuSans-30"/>
       <use x="288.18359375" xlink:href="#DejaVuSans-2f"/>
       <use x="321.875" xlink:href="#DejaVuSans-32"/>
       <use x="385.498046875" xlink:href="#DejaVuSans-35"/>
      </g>
     </g>
    </g>
    <g id="xtick_2">
     <g id="line2d_5">
      <path clip-path="url(#pd60e087a6e)" d="
M157.982 150.941
L157.982 23.4" style="fill:none;stroke:#000000;stroke-dasharray:1.000000,3.000000;stroke-dashoffset:0.0;stroke-linecap:butt;stroke-width:0.5;"/>
     </g>
     <g id="line2d_6">
      <g>
       <use style="stroke:#000000;stroke-linecap:butt;stroke-width:0.5;" x="157.982437499" xlink:href="#mcb557df647" y="150.940708317"/>
      </g>
     </g>
     <g id="line2d_7">
      <g>
       <use style="stroke:#000000;stroke-linecap:butt;stroke-width:0.5;" x="157.982437499" xlink:href="#mdad270ee8e" y="23.4"/>
      </g>
     </g>
     <g id="text_2">
      <!-- 12/10/26 -->
      <defs>
       <path d="
M33.0156 40.375
Q26.375 40.375 22.4844 35.8281
Q18.6094 31.2969 18.6094 23.3906
Q18.6094 15.5312 22.4844 10.9531
Q26.375 6.39062 33.0156 6.39062
Q39.6562 6.39062 43.5312 10.9531
Q47.4062 15.5312 47.4062 23.3906
Q47.4062 31.2969 43.5312 35.8281
Q39.6562 40.375 33.0156 40.375
M52.5938 71.2969
L52.5938 62.3125
Q48.875 64.0625 45.0938 64.9844
Q41.3125 65.9219 37.5938 65.9219
Q27.8281 65.9219 22.6719 59.3281
Q17.5312 52.7344 16.7969 39.4062
Q19.6719 43.6562 24.0156 45.9219
Q28.375 48.1875 33.5938 48.1875
Q44.5781 48.1875 50.9531 41.5156
Q57.3281 34.8594 57.3281 23.3906
Q57.3281 12.1562 50.6875 5.35938
Q44.0469 -1.42188 33.0156 -1.42188
Q20.3594 -1.42188 13.6719 8.26562
Q6.98438 17.9688 6.98438 36.375
Q6.98438 53.6562 15.1875 63.9375
Q23.3906 74.2188 37.2031 74.2188
Q40.9219 74.2188 44.7031 73.4844
Q48.4844 72.75 52.5938 71.2969" id="DejaVuSans-36"/>
      </defs>
      <g transform="translate(153.828341853 205.950046378)rotate(-70.0)scale(0.12 -0.12)">
       <use xlink:href="#DejaVuSans-31"/>
       <use x="63.623046875" xlink:href="#DejaVuSans-32"/>
       <use x="127.24609375" xlink:href="#DejaVuSans-2f"/>
       <use x="160.9375" xlink:href="#DejaVuSans-31"/>
       <use x="224.560546875" xlink:href="#DejaVuSans-30"/>
       <use x="288.18359375" xlink:href="#DejaVuSans-2f"/>
       <use x="321.875" xlink:href="#DejaVuSans-32"/>
       <use x="385.498046875" xlink:href="#DejaVuSans-36"/>
      </g>
     </g>
    </g>
    <g id="xtick_3">
     <g id="line2d_8">
      <path clip-path="url(#pd60e087a6e)" d="
M208.063 150.941
L208.063 23.4" style="fill:none;stroke:#000000;stroke-dasharray:1.000000,3.000000;stroke-dashoffset:0.0;stroke-linecap:butt;stroke-width:0.5;"/>
     </g>
     <g id="line2d_9">
      <g>
       <use style="stroke:#000000;stroke-linecap:butt;stroke-width:0.5;" x="208.062937506" xlink:href="#mcb557df647" y="150.940708317"/>
      </g>
     </g>
     <g id="line2d_10">
      <g>
       <use style="stroke:#000000;stroke-linecap:butt;stroke-width:0.5;" x="208.062937506" xlink:href="#mdad270ee8e" y="23.4"/>
      </g>
     </g>
     <g id="text_3">
      <!-- 12/10/27 -->
      <defs>
       <path d="
M8.20312 72.9062
L55.0781 72.9062
L55.0781 68.7031
L28.6094 0
L18.3125 0
L43.2188 64.5938
L8.20312 64.5938
z
" id="DejaVuSans-37"/>
      </defs>
      <g transform="translate(203.955014579 205.69632937)rotate(-70.0)scale(0.12 -0.12)">
       <use xlink:href="#DejaVuSans-31"/>
       <use x="63.623046875" xlink:href="#DejaVuSans-32"/>
       <use x="127.24609375" xlink:href="#DejaVuSans-2f"/>
       <use x="160.9375" xlink:href="#DejaVuSans-31"/>
       <use x="224.560546875" xlink:href="#DejaVuSans-30"/>
       <use x="288.18359375" xlink:href="#DejaVuSans-2f"/>
       <use x="321.875" xlink:href="#DejaVuSans-32"/>
       <use x="385.498046875" xlink:href="#DejaVuSans-37"/>
      </g>
     </g>
    </g>
    <g id="xtick_4">
     <g id="line2d_11">
      <path clip-path="url(#pd60e087a6e)" d="
M258.143 150.941
L258.143 23.4" style="fill:none;stroke:#000000;stroke-dasharray:1.000000,3.000000;stroke-dashoffset:0.0;stroke-linecap:butt;stroke-width:0.5;"/>
     </g>
     <g id="line2d_12">
      <g>
       <use style="stroke:#000000;stroke-linecap:butt;stroke-width:0.5;" x="258.143437505" xlink:href="#mcb557df647" y="150.940708317"/>
      </g>
     </g>
     <g id="line2d_13">
      <g>
       <use style="stroke:#000000;stroke-linecap:butt;stroke-width:0.5;" x="258.143437505" xlink:href="#mdad270ee8e" y="23.4"/>
      </g>
     </g>
     <g id="text_4">
      <!-- 12/10/28 -->
      <defs>
       <path d="
M31.7812 34.625
Q24.75 34.625 20.7188 30.8594
Q16.7031 27.0938 16.7031 20.5156
Q16.7031 13.9219 20.7188 10.1562
Q24.75 6.39062 31.7812 6.39062
Q38.8125 6.39062 42.8594 10.1719
Q46.9219 13.9688 46.9219 20.5156
Q46.9219 27.0938 42.8906 30.8594
Q38.875 34.625 31.7812 34.625
M21.9219 38.8125
Q15.5781 40.375 12.0312 44.7188
Q8.5 49.0781 8.5 55.3281
Q8.5 64.0625 14.7188 69.1406
Q20.9531 74.2188 31.7812 74.2188
Q42.6719 74.2188 48.875 69.1406
Q55.0781 64.0625 55.0781 55.3281
Q55.0781 49.0781 51.5312 44.7188
Q48 40.375 41.7031 38.8125
Q48.8281 37.1562 52.7969 32.3125
Q56.7812 27.4844 56.7812 20.5156
Q56.7812 9.90625 50.3125 4.23438
Q43.8438 -1.42188 31.7812 -1.42188
Q19.7344 -1.42188 13.25 4.23438
Q6.78125 9.90625 6.78125 20.5156
Q6.78125 27.4844 10.7812 32.3125
Q14.7969 37.1562 21.9219 38.8125
M18.3125 54.3906
Q18.3125 48.7344 21.8438 45.5625
Q25.3906 42.3906 31.7812 42.3906
Q38.1406 42.3906 41.7188 45.5625
Q45.3125 48.7344 45.3125 54.3906
Q45.3125 60.0625 41.7188 63.2344
Q38.1406 66.4062 31.7812 66.4062
Q25.3906 66.4062 21.8438 63.2344
Q18.3125 60.0625 18.3125 54.3906" id="DejaVuSans-38"/>
      </defs>
      <g transform="translate(254.000564395 205.88837905)rotate(-70.0)scale(0.12 -0.12)">
       <use xlink:href="#DejaVuSans-31"/>
       <use x="63.623046875" xlink:href="#DejaVuSans-32"/>
       <use x="127.24609375" xlink:href="#DejaVuSans-2f"/>
       <use x="160.9375" xlink:href="#DejaVuSans-31"/>
       <use x="224.560546875" xlink:href="#DejaVuSans-30"/>
       <use x="288.18359375" xlink:href="#DejaVuSans-2f"/>
       <use x="321.875" xlink:href="#DejaVuSans-32"/>
       <use x="385.498046875" xlink:href="#DejaVuSans-38"/>
      </g>
     </g>
    </g>
    <g id="xtick_5">
     <g id="line2d_14">
      <path clip-path="url(#pd60e087a6e)" d="
M308.224 150.941
L308.224 23.4" style="fill:none;stroke:#000000;stroke-dasharray:1.000000,3.000000;stroke-dashoffset:0.0;stroke-linecap:butt;stroke-width:0.5;"/>
     </g>
     <g id="line2d_15">
      <g>
       <use style="stroke:#000000;stroke-linecap:butt;stroke-width:0.5;" x="308.223937504" xlink:href="#mcb557df647" y="150.940708317"/>
      </g>
     </g>
     <g id="line2d_16">
      <g>
       <use style="stroke:#000000;stroke-linecap:butt;stroke-width:0.5;" x="308.223937504" xlink:href="#mdad270ee8e" y="23.4"/>
      </g>
     </g>
     <g id="text_5">
      <!-- 12/10/29 -->
      <defs>
       <path d="
M10.9844 1.51562
L10.9844 10.5
Q14.7031 8.73438 18.5 7.8125
Q22.3125 6.89062 25.9844 6.89062
Q35.75 6.89062 40.8906 13.4531
Q46.0469 20.0156 46.7812 33.4062
Q43.9531 29.2031 39.5938 26.9531
Q35.25 24.7031 29.9844 24.7031
Q19.0469 24.7031 12.6719 31.3125
Q6.29688 37.9375 6.29688 49.4219
Q6.29688 60.6406 12.9375 67.4219
Q19.5781 74.2188 30.6094 74.2188
Q43.2656 74.2188 49.9219 64.5156
Q56.5938 54.8281 56.5938 36.375
Q56.5938 19.1406 48.4062 8.85938
Q40.2344 -1.42188 26.4219 -1.42188
Q22.7031 -1.42188 18.8906 -0.6875
Q15.0938 0.046875 10.9844 1.51562
M30.6094 32.4219
Q37.25 32.4219 41.125 36.9531
Q45.0156 41.5 45.0156 49.4219
Q45.0156 57.2812 41.125 61.8438
Q37.25 66.4062 30.6094 66.4062
Q23.9688 66.4062 20.0938 61.8438
Q16.2188 57.2812 16.2188 49.4219
Q16.2188 41.5 20.0938 36.9531
Q23.9688 32.4219 30.6094 32.4219" id="DejaVuSans-39"/>
      </defs>
      <g transform="translate(304.084912121 205.867235966)rotate(-70.0)scale(0.12 -0.12)">
       <use xlink:href="#DejaVuSans-31"/>
       <use x="63.623046875" xlink:href="#DejaVuSans-32"/>
       <use x="127.24609375" xlink:href="#DejaVuSans-2f"/>
       <use x="160.9375" xlink:href="#DejaVuSans-31"/>
       <use x="224.560546875" xlink:href="#DejaVuSans-30"/>
       <use x="288.18359375" xlink:href="#DejaVuSans-2f"/>
       <use x="321.875" xlink:href="#DejaVuSans-32"/>
       <use x="385.498046875" xlink:href="#DejaVuSans-39"/>
      </g>
     </g>
    </g>
    <g id="xtick_6">
     <g id="line2d_17">
      <path clip-path="url(#pd60e087a6e)" d="
M358.304 150.941
L358.304 23.4" style="fill:none;stroke:#000000;stroke-dasharray:1.000000,3.000000;stroke-dashoffset:0.0;stroke-linecap:butt;stroke-width:0.5;"/>
     </g>
     <g id="line2d_18">
      <g>
       <use style="stroke:#000000;stroke-linecap:butt;stroke-width:0.5;" x="358.304437503" xlink:href="#mcb557df647" y="150.940708317"/>
      </g>
     </g>
     <g id="line2d_19">
      <g>
       <use style="stroke:#000000;stroke-linecap:butt;stroke-width:0.5;" x="358.304437503" xlink:href="#mdad270ee8e" y="23.4"/>
      </g>
     </g>
     <g id="text_6">
      <!-- 12/10/30 -->
      <defs>
       <path d="
M40.5781 39.3125
Q47.6562 37.7969 51.625 33
Q55.6094 28.2188 55.6094 21.1875
Q55.6094 10.4062 48.1875 4.48438
Q40.7656 -1.42188 27.0938 -1.42188
Q22.5156 -1.42188 17.6562 -0.515625
Q12.7969 0.390625 7.625 2.20312
L7.625 11.7188
Q11.7188 9.32812 16.5938 8.10938
Q21.4844 6.89062 26.8125 6.89062
Q36.0781 6.89062 40.9375 10.5469
Q45.7969 14.2031 45.7969 21.1875
Q45.7969 27.6406 41.2812 31.2656
Q36.7656 34.9062 28.7188 34.9062
L20.2188 34.9062
L20.2188 43.0156
L29.1094 43.0156
Q36.375 43.0156 40.2344 45.9219
Q44.0938 48.8281 44.0938 54.2969
Q44.0938 59.9062 40.1094 62.9062
Q36.1406 65.9219 28.7188 65.9219
Q24.6562 65.9219 20.0156 65.0312
Q15.375 64.1562 9.8125 62.3125
L9.8125 71.0938
Q15.4375 72.6562 20.3438 73.4375
Q25.25 74.2188 29.5938 74.2188
Q40.8281 74.2188 47.3594 69.1094
Q53.9062 64.0156 53.9062 55.3281
Q53.9062 49.2656 50.4375 45.0938
Q46.9688 40.9219 40.5781 39.3125" id="DejaVuSans-33"/>
      </defs>
      <g transform="translate(354.157396023 205.911284057)rotate(-70.0)scale(0.12 -0.12)">
       <use xlink:href="#DejaVuSans-31"/>
       <use x="63.623046875" xlink:href="#DejaVuSans-32"/>
       <use x="127.24609375" xlink:href="#DejaVuSans-2f"/>
       <use x="160.9375" xlink:href="#DejaVuSans-31"/>
       <use x="224.560546875" xlink:href="#DejaVuSans-30"/>
       <use x="288.18359375" xlink:href="#DejaVuSans-2f"/>
       <use x="321.875" xlink:href="#DejaVuSans-33"/>
       <use x="385.498046875" xlink:href="#DejaVuSans-30"/>
      </g>
     </g>
    </g>
    <g id="xtick_7">
     <g id="line2d_20">
      <path clip-path="url(#pd60e087a6e)" d="
M408.385 150.941
L408.385 23.4" style="fill:none;stroke:#000000;stroke-dasharray:1.000000,3.000000;stroke-dashoffset:0.0;stroke-linecap:butt;stroke-width:0.5;"/>
     </g>
     <g id="line2d_21">
      <g>
       <use style="stroke:#000000;stroke-linecap:butt;stroke-width:0.5;" x="408.384937502" xlink:href="#mcb557df647" y="150.940708317"/>
      </g>
     </g>
     <g id="line2d_22">
      <g>
       <use style="stroke:#000000;stroke-linecap:butt;stroke-width:0.5;" x="408.384937502" xlink:href="#mdad270ee8e" y="23.4"/>
      </g>
     </g>
     <g id="text_7">
      <!-- 12/10/31 -->
      <g transform="translate(404.291122907 205.618804729)rotate(-70.0)scale(0.12 -0.12)">
       <use xlink:href="#DejaVuSans-31"/>
       <use x="63.623046875" xlink:href="#DejaVuSans-32"/>
       <use x="127.24609375" xlink:href="#DejaVuSans-2f"/>
       <use x="160.9375" xlink:href="#DejaVuSans-31"/>
       <use x="224.560546875" xlink:href="#DejaVuSans-30"/>
       <use x="288.18359375" xlink:href="#DejaVuSans-2f"/>
       <use x="321.875" xlink:href="#DejaVuSans-33"/>
       <use x="385.498046875" xlink:href="#DejaVuSans-31"/>
      </g>
     </g>
    </g>
    <g id="xtick_8">
     <g id="line2d_23">
      <path clip-path="url(#pd60e087a6e)" d="
M458.465 150.941
L458.465 23.4" style="fill:none;stroke:#000000;stroke-dasharray:1.000000,3.000000;stroke-dashoffset:0.0;stroke-linecap:butt;stroke-width:0.5;"/>
     </g>
     <g id="line2d_24">
      <g>
       <use style="stroke:#000000;stroke-linecap:butt;stroke-width:0.5;" x="458.465437502" xlink:href="#mcb557df647" y="150.940708317"/>
      </g>
     </g>
     <g id="line2d_25">
      <g>
       <use style="stroke:#000000;stroke-linecap:butt;stroke-width:0.5;" x="458.465437502" xlink:href="#mdad270ee8e" y="23.4"/>
      </g>
     </g>
     <g id="text_8">
      <!-- 12/11/01 -->
      <g transform="translate(454.371622906 205.618804729)rotate(-70.0)scale(0.12 -0.12)">
       <use xlink:href="#DejaVuSans-31"/>
       <use x="63.623046875" xlink:href="#DejaVuSans-32"/>
       <use x="127.24609375" xlink:href="#DejaVuSans-2f"/>
       <use x="160.9375" xlink:href="#DejaVuSans-31"/>
       <use x="224.560546875" xlink:href="#DejaVuSans-31"/>
       <use x="288.18359375" xlink:href="#DejaVuSans-2f"/>
       <use x="321.875" xlink:href="#DejaVuSans-30"/>
       <use x="385.498046875" xlink:href="#DejaVuSans-31"/>
      </g>
     </g>
    </g>
    <g id="xtick_9">
     <g id="line2d_26">
      <path clip-path="url(#pd60e087a6e)" d="
M508.546 150.941
L508.546 23.4" style="fill:none;stroke:#000000;stroke-dasharray:1.000000,3.000000;stroke-dashoffset:0.0;stroke-linecap:butt;stroke-width:0.5;"/>
     </g>
     <g id="line2d_27">
      <g>
       <use style="stroke:#000000;stroke-linecap:butt;stroke-width:0.5;" x="508.545937501" xlink:href="#mcb557df647" y="150.940708317"/>
      </g>
     </g>
     <g id="line2d_28">
      <g>
       <use style="stroke:#000000;stroke-linecap:butt;stroke-width:0.5;" x="508.545937501" xlink:href="#mdad270ee8e" y="23.4"/>
      </g>
     </g>
     <g id="text_9">
      <!-- 12/11/02 -->
      <g transform="translate(504.468155099 205.530708546)rotate(-70.0)scale(0.12 -0.12)">
       <use xlink:href="#DejaVuSans-31"/>
       <use x="63.623046875" xlink:href="#DejaVuSans-32"/>
       <use x="127.24609375" xlink:href="#DejaVuSans-2f"/>
       <use x="160.9375" xlink:href="#DejaVuSans-31"/>
       <use x="224.560546875" xlink:href="#DejaVuSans-31"/>
       <use x="288.18359375" xlink:href="#DejaVuSans-2f"/>
       <use x="321.875" xlink:href="#DejaVuSans-30"/>
       <use x="385.498046875" xlink:href="#DejaVuSans-32"/>
      </g>
     </g>
    </g>
    <g id="xtick_10">
     <g id="line2d_29">
      <path clip-path="url(#pd60e087a6e)" d="
M558.626 150.941
L558.626 23.4" style="fill:none;stroke:#000000;stroke-dasharray:1.000000,3.000000;stroke-dashoffset:0.0;stroke-linecap:butt;stroke-width:0.5;"/>
     </g>
     <g id="line2d_30">
      <g>
       <use style="stroke:#000000;stroke-linecap:butt;stroke-width:0.5;" x="558.6264375" xlink:href="#mcb557df647" y="150.940708317"/>
      </g>
     </g>
     <g id="line2d_31">
      <g>
       <use style="stroke:#000000;stroke-linecap:butt;stroke-width:0.5;" x="558.6264375" xlink:href="#mdad270ee8e" y="23.4"/>
      </g>
     </g>
     <g id="text_10">
      <!-- 12/11/03 -->
      <g transform="translate(554.507612681 205.756234775)rotate(-70.0)scale(0.12 -0.12)">
       <use xlink:href="#DejaVuSans-31"/>
       <use x="63.623046875" xlink:href="#DejaVuSans-32"/>
       <use x="127.24609375" xlink:href="#DejaVuSans-2f"/>
       <use x="160.9375" xlink:href="#DejaVuSans-31"/>
       <use x="224.560546875" xlink:href="#DejaVuSans-31"/>
       <use x="288.18359375" xlink:href="#DejaVuSans-2f"/>
       <use x="321.875" xlink:href="#DejaVuSans-30"/>
       <use x="385.498046875" xlink:href="#DejaVuSans-33"/>
      </g>
     </g>
    </g>
    <g id="text_11">
     <!-- Event Time Period -->
     <defs>
      <path d="
M56.2031 29.5938
L56.2031 25.2031
L14.8906 25.2031
Q15.4844 15.9219 20.4844 11.0625
Q25.4844 6.20312 34.4219 6.20312
Q39.5938 6.20312 44.4531 7.46875
Q49.3125 8.73438 54.1094 11.2812
L54.1094 2.78125
Q49.2656 0.734375 44.1875 -0.34375
Q39.1094 -1.42188 33.8906 -1.42188
Q20.7969 -1.42188 13.1562 6.1875
Q5.51562 13.8125 5.51562 26.8125
Q5.51562 40.2344 12.7656 48.1094
Q20.0156 56 32.3281 56
Q43.3594 56 49.7812 48.8906
Q56.2031 41.7969 56.2031 29.5938
M47.2188 32.2344
Q47.125 39.5938 43.0938 43.9844
Q39.0625 48.3906 32.4219 48.3906
Q24.9062 48.3906 20.3906 44.1406
Q15.875 39.8906 15.1875 32.1719
z
" id="DejaVuSans-65"/>
      <path d="
M19.6719 64.7969
L19.6719 37.4062
L32.0781 37.4062
Q38.9688 37.4062 42.7188 40.9688
Q46.4844 44.5312 46.4844 51.125
Q46.4844 57.6719 42.7188 61.2344
Q38.9688 64.7969 32.0781 64.7969
z

M9.8125 72.9062
L32.0781 72.9062
Q44.3438 72.9062 50.6094 67.3594
Q56.8906 61.8125 56.8906 51.125
Q56.8906 40.3281 50.6094 34.8125
Q44.3438 29.2969 32.0781 29.2969
L19.6719 29.2969
L19.6719 0
L9.8125 0
z
" id="DejaVuSans-50"/>
      <path d="
M30.6094 48.3906
Q23.3906 48.3906 19.1875 42.75
Q14.9844 37.1094 14.9844 27.2969
Q14.9844 17.4844 19.1562 11.8438
Q23.3438 6.20312 30.6094 6.20312
Q37.7969 6.20312 41.9844 11.8594
Q46.1875 17.5312 46.1875 27.2969
Q46.1875 37.0156 41.9844 42.7031
Q37.7969 48.3906 30.6094 48.3906
M30.6094 56
Q42.3281 56 49.0156 48.375
Q55.7188 40.7656 55.7188 27.2969
Q55.7188 13.875 49.0156 6.21875
Q42.3281 -1.42188 30.6094 -1.42188
Q18.8438 -1.42188 12.1719 6.21875
Q5.51562 13.875 5.51562 27.2969
Q5.51562 40.7656 12.1719 48.375
Q18.8438 56 30.6094 56" id="DejaVuSans-6f"/>
      <path d="
M52 44.1875
Q55.375 50.25 60.0625 53.125
Q64.75 56 71.0938 56
Q79.6406 56 84.2812 50.0156
Q88.9219 44.0469 88.9219 33.0156
L88.9219 0
L79.8906 0
L79.8906 32.7188
Q79.8906 40.5781 77.0938 44.375
Q74.3125 48.1875 68.6094 48.1875
Q61.625 48.1875 57.5625 43.5469
Q53.5156 38.9219 53.5156 30.9062
L53.5156 0
L44.4844 0
L44.4844 32.7188
Q44.4844 40.625 41.7031 44.4062
Q38.9219 48.1875 33.1094 48.1875
Q26.2188 48.1875 22.1562 43.5312
Q18.1094 38.875 18.1094 30.9062
L18.1094 0
L9.07812 0
L9.07812 54.6875
L18.1094 54.6875
L18.1094 46.1875
Q21.1875 51.2188 25.4844 53.6094
Q29.7812 56 35.6875 56
Q41.6562 56 45.8281 52.9688
Q50 49.9531 52 44.1875" id="DejaVuSans-6d"/>
      <path d="
M54.8906 33.0156
L54.8906 0
L45.9062 0
L45.9062 32.7188
Q45.9062 40.4844 42.875 44.3281
Q39.8438 48.1875 33.7969 48.1875
Q26.5156 48.1875 22.3125 43.5469
Q18.1094 38.9219 18.1094 30.9062
L18.1094 0
L9.07812 0
L9.07812 54.6875
L18.1094 54.6875
L18.1094 46.1875
Q21.3438 51.125 25.7031 53.5625
Q30.0781 56 35.7969 56
Q45.2188 56 50.0469 50.1719
Q54.8906 44.3438 54.8906 33.0156" id="DejaVuSans-6e"/>
      <path d="
M9.8125 72.9062
L55.9062 72.9062
L55.9062 64.5938
L19.6719 64.5938
L19.6719 43.0156
L54.3906 43.0156
L54.3906 34.7188
L19.6719 34.7188
L19.6719 8.29688
L56.7812 8.29688
L56.7812 0
L9.8125 0
z
" id="DejaVuSans-45"/>
      <path id="DejaVuSans-20"/>
      <path d="
M9.42188 54.6875
L18.4062 54.6875
L18.4062 0
L9.42188 0
z

M9.42188 75.9844
L18.4062 75.9844
L18.4062 64.5938
L9.42188 64.5938
z
" id="DejaVuSans-69"/>
      <path d="
M18.3125 70.2188
L18.3125 54.6875
L36.8125 54.6875
L36.8125 47.7031
L18.3125 47.7031
L18.3125 18.0156
Q18.3125 11.3281 20.1406 9.42188
Q21.9688 7.51562 27.5938 7.51562
L36.8125 7.51562
L36.8125 0
L27.5938 0
Q17.1875 0 13.2344 3.875
Q9.28125 7.76562 9.28125 18.0156
L9.28125 47.7031
L2.6875 47.7031
L2.6875 54.6875
L9.28125 54.6875
L9.28125 70.2188
z
" id="DejaVuSans-74"/>
      <path d="
M45.4062 46.3906
L45.4062 75.9844
L54.3906 75.9844
L54.3906 0
L45.4062 0
L45.4062 8.20312
Q42.5781 3.32812 38.25 0.953125
Q33.9375 -1.42188 27.875 -1.42188
Q17.9688 -1.42188 11.7344 6.48438
Q5.51562 14.4062 5.51562 27.2969
Q5.51562 40.1875 11.7344 48.0938
Q17.9688 56 27.875 56
Q33.9375 56 38.25 53.625
Q42.5781 51.2656 45.4062 46.3906
M14.7969 27.2969
Q14.7969 17.3906 18.875 11.75
Q22.9531 6.10938 30.0781 6.10938
Q37.2031 6.10938 41.2969 11.75
Q45.4062 17.3906 45.4062 27.2969
Q45.4062 37.2031 41.2969 42.8438
Q37.2031 48.4844 30.0781 48.4844
Q22.9531 48.4844 18.875 42.8438
Q14.7969 37.2031 14.7969 27.2969" id="DejaVuSans-64"/>
      <path d="
M2.98438 54.6875
L12.5 54.6875
L29.5938 8.79688
L46.6875 54.6875
L56.2031 54.6875
L35.6875 0
L23.4844 0
z
" id="DejaVuSans-76"/>
      <path d="
M41.1094 46.2969
Q39.5938 47.1719 37.8125 47.5781
Q36.0312 48 33.8906 48
Q26.2656 48 22.1875 43.0469
Q18.1094 38.0938 18.1094 28.8125
L18.1094 0
L9.07812 0
L9.07812 54.6875
L18.1094 54.6875
L18.1094 46.1875
Q20.9531 51.1719 25.4844 53.5781
Q30.0312 56 36.5312 56
Q37.4531 56 38.5781 55.875
Q39.7031 55.7656 41.0625 55.5156
z
" id="DejaVuSans-72"/>
      <path d="
M-0.296875 72.9062
L61.375 72.9062
L61.375 64.5938
L35.5 64.5938
L35.5 0
L25.5938 0
L25.5938 64.5938
L-0.296875 64.5938
z
" id="DejaVuSans-54"/>
     </defs>
     <g transform="translate(277.3340625 221.181921378)scale(0.12 -0.12)">
      <use xlink:href="#DejaVuSans-45"/>
      <use x="63.18359375" xlink:href="#DejaVuSans-76"/>
      <use x="122.36328125" xlink:href="#DejaVuSans-65"/>
      <use x="183.88671875" xlink:href="#DejaVuSans-6e"/>
      <use x="247.265625" xlink:href="#DejaVuSans-74"/>
      <use x="286.474609375" xlink:href="#DejaVuSans-20"/>
      <use x="318.26171875" xlink:href="#DejaVuSans-54"/>
      <use x="376.220703125" xlink:href="#DejaVuSans-69"/>
      <use x="404.00390625" xlink:href="#DejaVuSans-6d"/>
      <use x="501.416015625" xlink:href="#DejaVuSans-65"/>
      <use x="562.939453125" xlink:href="#DejaVuSans-20"/>
      <use x="594.7265625" xlink:href="#DejaVuSans-50"/>
      <use x="651.404296875" xlink:href="#DejaVuSans-65"/>
      <use x="712.927734375" xlink:href="#DejaVuSans-72"/>
      <use x="754.041015625" xlink:href="#DejaVuSans-69"/>
      <use x="781.82421875" xlink:href="#DejaVuSans-6f"/>
      <use x="843.005859375" xlink:href="#DejaVuSans-64"/>
     </g>
    </g>
   </g>
   <g id="matplotlib.axis_2">
    <g id="ytick_1">
     <g id="line2d_32">
      <path clip-path="url(#pd60e087a6e)" d="
M80.775 150.941
L581.58 150.941" style="fill:none;stroke:#000000;stroke-dasharray:1.000000,3.000000;stroke-dashoffset:0.0;stroke-linecap:butt;stroke-width:0.5;"/>
     </g>
     <g id="line2d_33">
      <defs>
       <path d="
M0 0
L4 0" id="mc8fcea1516" style="stroke:#000000;stroke-linecap:butt;stroke-width:0.5;"/>
      </defs>
      <g>
       <use style="stroke:#000000;stroke-linecap:butt;stroke-width:0.5;" x="80.775" xlink:href="#mc8fcea1516" y="150.940708317"/>
      </g>
     </g>
     <g id="line2d_34">
      <defs>
       <path d="
M0 0
L-4 0" id="m0d5b0a6425" style="stroke:#000000;stroke-linecap:butt;stroke-width:0.5;"/>
      </defs>
      <g>
       <use style="stroke:#000000;stroke-linecap:butt;stroke-width:0.5;" x="581.58" xlink:href="#m0d5b0a6425" y="150.940708317"/>
      </g>
     </g>
     <g id="text_12">
      <!-- 0 -->
      <g transform="translate(70.728125 155.308520817)scale(0.12 -0.12)">
       <use xlink:href="#DejaVuSans-30"/>
      </g>
     </g>
    </g>
    <g id="ytick_2">
     <g id="line2d_35">
      <path clip-path="url(#pd60e087a6e)" d="
M80.775 136.77
L581.58 136.77" style="fill:none;stroke:#000000;stroke-dasharray:1.000000,3.000000;stroke-dashoffset:0.0;stroke-linecap:butt;stroke-width:0.5;"/>
     </g>
     <g id="line2d_36">
      <g>
       <use style="stroke:#000000;stroke-linecap:butt;stroke-width:0.5;" x="80.775" xlink:href="#mc8fcea1516" y="136.769518504"/>
      </g>
     </g>
     <g id="line2d_37">
      <g>
       <use style="stroke:#000000;stroke-linecap:butt;stroke-width:0.5;" x="581.58" xlink:href="#m0d5b0a6425" y="136.769518504"/>
      </g>
     </g>
     <g id="text_13">
      <!-- 100 -->
      <g transform="translate(55.985 141.137331004)scale(0.12 -0.12)">
       <use xlink:href="#DejaVuSans-31"/>
       <use x="63.623046875" xlink:href="#DejaVuSans-30"/>
       <use x="127.24609375" xlink:href="#DejaVuSans-30"/>
      </g>
     </g>
    </g>
    <g id="ytick_3">
     <g id="line2d_38">
      <path clip-path="url(#pd60e087a6e)" d="
M80.775 122.598
L581.58 122.598" style="fill:none;stroke:#000000;stroke-dasharray:1.000000,3.000000;stroke-dashoffset:0.0;stroke-linecap:butt;stroke-width:0.5;"/>
     </g>
     <g id="line2d_39">
      <g>
       <use style="stroke:#000000;stroke-linecap:butt;stroke-width:0.5;" x="80.775" xlink:href="#mc8fcea1516" y="122.598328691"/>
      </g>
     </g>
     <g id="line2d_40">
      <g>
       <use style="stroke:#000000;stroke-linecap:butt;stroke-width:0.5;" x="581.58" xlink:href="#m0d5b0a6425" y="122.598328691"/>
      </g>
     </g>
     <g id="text_14">
      <!-- 200 -->
      <g transform="translate(55.54625 126.966141191)scale(0.12 -0.12)">
       <use xlink:href="#DejaVuSans-32"/>
       <use x="63.623046875" xlink:href="#DejaVuSans-30"/>
       <use x="127.24609375" xlink:href="#DejaVuSans-30"/>
      </g>
     </g>
    </g>
    <g id="ytick_4">
     <g id="line2d_41">
      <path clip-path="url(#pd60e087a6e)" d="
M80.775 108.427
L581.58 108.427" style="fill:none;stroke:#000000;stroke-dasharray:1.000000,3.000000;stroke-dashoffset:0.0;stroke-linecap:butt;stroke-width:0.5;"/>
     </g>
     <g id="line2d_42">
      <g>
       <use style="stroke:#000000;stroke-linecap:butt;stroke-width:0.5;" x="80.775" xlink:href="#mc8fcea1516" y="108.427138878"/>
      </g>
     </g>
     <g id="line2d_43">
      <g>
       <use style="stroke:#000000;stroke-linecap:butt;stroke-width:0.5;" x="581.58" xlink:href="#m0d5b0a6425" y="108.427138878"/>
      </g>
     </g>
     <g id="text_15">
      <!-- 300 -->
      <g transform="translate(55.581875 112.794951378)scale(0.12 -0.12)">
       <use xlink:href="#DejaVuSans-33"/>
       <use x="63.623046875" xlink:href="#DejaVuSans-30"/>
       <use x="127.24609375" xlink:href="#DejaVuSans-30"/>
      </g>
     </g>
    </g>
    <g id="ytick_5">
     <g id="line2d_44">
      <path clip-path="url(#pd60e087a6e)" d="
M80.775 94.2559
L581.58 94.2559" style="fill:none;stroke:#000000;stroke-dasharray:1.000000,3.000000;stroke-dashoffset:0.0;stroke-linecap:butt;stroke-width:0.5;"/>
     </g>
     <g id="line2d_45">
      <g>
       <use style="stroke:#000000;stroke-linecap:butt;stroke-width:0.5;" x="80.775" xlink:href="#mc8fcea1516" y="94.2559490649"/>
      </g>
     </g>
     <g id="line2d_46">
      <g>
       <use style="stroke:#000000;stroke-linecap:butt;stroke-width:0.5;" x="581.58" xlink:href="#m0d5b0a6425" y="94.2559490649"/>
      </g>
     </g>
     <g id="text_16">
      <!-- 400 -->
      <defs>
       <path d="
M37.7969 64.3125
L12.8906 25.3906
L37.7969 25.3906
z

M35.2031 72.9062
L47.6094 72.9062
L47.6094 25.3906
L58.0156 25.3906
L58.0156 17.1875
L47.6094 17.1875
L47.6094 0
L37.7969 0
L37.7969 17.1875
L4.89062 17.1875
L4.89062 26.7031
z
" id="DejaVuSans-34"/>
      </defs>
      <g transform="translate(55.25375 98.6237615649)scale(0.12 -0.12)">
       <use xlink:href="#DejaVuSans-34"/>
       <use x="63.623046875" xlink:href="#DejaVuSans-30"/>
       <use x="127.24609375" xlink:href="#DejaVuSans-30"/>
      </g>
     </g>
    </g>
    <g id="ytick_6">
     <g id="line2d_47">
      <path clip-path="url(#pd60e087a6e)" d="
M80.775 80.0848
L581.58 80.0848" style="fill:none;stroke:#000000;stroke-dasharray:1.000000,3.000000;stroke-dashoffset:0.0;stroke-linecap:butt;stroke-width:0.5;"/>
     </g>
     <g id="line2d_48">
      <g>
       <use style="stroke:#000000;stroke-linecap:butt;stroke-width:0.5;" x="80.775" xlink:href="#mc8fcea1516" y="80.0847592519"/>
      </g>
     </g>
     <g id="line2d_49">
      <g>
       <use style="stroke:#000000;stroke-linecap:butt;stroke-width:0.5;" x="581.58" xlink:href="#m0d5b0a6425" y="80.0847592519"/>
      </g>
     </g>
     <g id="text_17">
      <!-- 500 -->
      <g transform="translate(55.593125 84.4525717519)scale(0.12 -0.12)">
       <use xlink:href="#DejaVuSans-35"/>
       <use x="63.623046875" xlink:href="#DejaVuSans-30"/>
       <use x="127.24609375" xlink:href="#DejaVuSans-30"/>
      </g>
     </g>
    </g>
    <g id="ytick_7">
     <g id="line2d_50">
      <path clip-path="url(#pd60e087a6e)" d="
M80.775 65.9136
L581.58 65.9136" style="fill:none;stroke:#000000;stroke-dasharray:1.000000,3.000000;stroke-dashoffset:0.0;stroke-linecap:butt;stroke-width:0.5;"/>
     </g>
     <g id="line2d_51">
      <g>
       <use style="stroke:#000000;stroke-linecap:butt;stroke-width:0.5;" x="80.775" xlink:href="#mc8fcea1516" y="65.9135694389"/>
      </g>
     </g>
     <g id="line2d_52">
      <g>
       <use style="stroke:#000000;stroke-linecap:butt;stroke-width:0.5;" x="581.58" xlink:href="#m0d5b0a6425" y="65.9135694389"/>
      </g>
     </g>
     <g id="text_18">
      <!-- 600 -->
      <g transform="translate(55.505 70.2813819389)scale(0.12 -0.12)">
       <use xlink:href="#DejaVuSans-36"/>
       <use x="63.623046875" xlink:href="#DejaVuSans-30"/>
       <use x="127.24609375" xlink:href="#DejaVuSans-30"/>
      </g>
     </g>
    </g>
    <g id="ytick_8">
     <g id="line2d_53">
      <path clip-path="url(#pd60e087a6e)" d="
M80.775 51.7424
L581.58 51.7424" style="fill:none;stroke:#000000;stroke-dasharray:1.000000,3.000000;stroke-dashoffset:0.0;stroke-linecap:butt;stroke-width:0.5;"/>
     </g>
     <g id="line2d_54">
      <g>
       <use style="stroke:#000000;stroke-linecap:butt;stroke-width:0.5;" x="80.775" xlink:href="#mc8fcea1516" y="51.7423796259"/>
      </g>
     </g>
     <g id="line2d_55">
      <g>
       <use style="stroke:#000000;stroke-linecap:butt;stroke-width:0.5;" x="581.58" xlink:href="#m0d5b0a6425" y="51.7423796259"/>
      </g>
     </g>
     <g id="text_19">
      <!-- 700 -->
      <g transform="translate(55.65125 56.1101921259)scale(0.12 -0.12)">
       <use xlink:href="#DejaVuSans-37"/>
       <use x="63.623046875" xlink:href="#DejaVuSans-30"/>
       <use x="127.24609375" xlink:href="#DejaVuSans-30"/>
      </g>
     </g>
    </g>
    <g id="ytick_9">
     <g id="line2d_56">
      <path clip-path="url(#pd60e087a6e)" d="
M80.775 37.5712
L581.58 37.5712" style="fill:none;stroke:#000000;stroke-dasharray:1.000000,3.000000;stroke-dashoffset:0.0;stroke-linecap:butt;stroke-width:0.5;"/>
     </g>
     <g id="line2d_57">
      <g>
       <use style="stroke:#000000;stroke-linecap:butt;stroke-width:0.5;" x="80.775" xlink:href="#mc8fcea1516" y="37.571189813"/>
      </g>
     </g>
     <g id="line2d_58">
      <g>
       <use style="stroke:#000000;stroke-linecap:butt;stroke-width:0.5;" x="581.58" xlink:href="#m0d5b0a6425" y="37.571189813"/>
      </g>
     </g>
     <g id="text_20">
      <!-- 800 -->
      <g transform="translate(55.480625 41.939002313)scale(0.12 -0.12)">
       <use xlink:href="#DejaVuSans-38"/>
       <use x="63.623046875" xlink:href="#DejaVuSans-30"/>
       <use x="127.24609375" xlink:href="#DejaVuSans-30"/>
      </g>
     </g>
    </g>
    <g id="ytick_10">
     <g id="line2d_59">
      <path clip-path="url(#pd60e087a6e)" d="
M80.775 23.4
L581.58 23.4" style="fill:none;stroke:#000000;stroke-dasharray:1.000000,3.000000;stroke-dashoffset:0.0;stroke-linecap:butt;stroke-width:0.5;"/>
     </g>
     <g id="line2d_60">
      <g>
       <use style="stroke:#000000;stroke-linecap:butt;stroke-width:0.5;" x="80.775" xlink:href="#mc8fcea1516" y="23.4"/>
      </g>
     </g>
     <g id="line2d_61">
      <g>
       <use style="stroke:#000000;stroke-linecap:butt;stroke-width:0.5;" x="581.58" xlink:href="#m0d5b0a6425" y="23.4"/>
      </g>
     </g>
     <g id="text_21">
      <!-- 900 -->
      <g transform="translate(55.4225 27.7678125)scale(0.12 -0.12)">
       <use xlink:href="#DejaVuSans-39"/>
       <use x="63.623046875" xlink:href="#DejaVuSans-30"/>
       <use x="127.24609375" xlink:href="#DejaVuSans-30"/>
      </g>
     </g>
    </g>
    <g id="text_22">
     <!-- Document Frequency -->
     <defs>
      <path d="
M19.6719 64.7969
L19.6719 8.10938
L31.5938 8.10938
Q46.6875 8.10938 53.6875 14.9375
Q60.6875 21.7812 60.6875 36.5312
Q60.6875 51.1719 53.6875 57.9844
Q46.6875 64.7969 31.5938 64.7969
z

M9.8125 72.9062
L30.0781 72.9062
Q51.2656 72.9062 61.1719 64.0938
Q71.0938 55.2812 71.0938 36.5312
Q71.0938 17.6719 61.125 8.82812
Q51.1719 0 30.0781 0
L9.8125 0
z
" id="DejaVuSans-44"/>
      <path d="
M9.8125 72.9062
L51.7031 72.9062
L51.7031 64.5938
L19.6719 64.5938
L19.6719 43.1094
L48.5781 43.1094
L48.5781 34.8125
L19.6719 34.8125
L19.6719 0
L9.8125 0
z
" id="DejaVuSans-46"/>
      <path d="
M32.1719 -5.07812
Q28.375 -14.8438 24.75 -17.8125
Q21.1406 -20.7969 15.0938 -20.7969
L7.90625 -20.7969
L7.90625 -13.2812
L13.1875 -13.2812
Q16.8906 -13.2812 18.9375 -11.5156
Q21 -9.76562 23.4844 -3.21875
L25.0938 0.875
L2.98438 54.6875
L12.5 54.6875
L29.5938 11.9219
L46.6875 54.6875
L56.2031 54.6875
z
" id="DejaVuSans-79"/>
      <path d="
M8.5 21.5781
L8.5 54.6875
L17.4844 54.6875
L17.4844 21.9219
Q17.4844 14.1562 20.5 10.2656
Q23.5312 6.39062 29.5938 6.39062
Q36.8594 6.39062 41.0781 11.0312
Q45.3125 15.6719 45.3125 23.6875
L45.3125 54.6875
L54.2969 54.6875
L54.2969 0
L45.3125 0
L45.3125 8.40625
Q42.0469 3.42188 37.7188 1
Q33.4062 -1.42188 27.6875 -1.42188
Q18.2656 -1.42188 13.375 4.4375
Q8.5 10.2969 8.5 21.5781
M31.1094 56
z
" id="DejaVuSans-75"/>
      <path d="
M14.7969 27.2969
Q14.7969 17.3906 18.875 11.75
Q22.9531 6.10938 30.0781 6.10938
Q37.2031 6.10938 41.2969 11.75
Q45.4062 17.3906 45.4062 27.2969
Q45.4062 37.2031 41.2969 42.8438
Q37.2031 48.4844 30.0781 48.4844
Q22.9531 48.4844 18.875 42.8438
Q14.7969 37.2031 14.7969 27.2969
M45.4062 8.20312
Q42.5781 3.32812 38.25 0.953125
Q33.9375 -1.42188 27.875 -1.42188
Q17.9688 -1.42188 11.7344 6.48438
Q5.51562 14.4062 5.51562 27.2969
Q5.51562 40.1875 11.7344 48.0938
Q17.9688 56 27.875 56
Q33.9375 56 38.25 53.625
Q42.5781 51.2656 45.4062 46.3906
L45.4062 54.6875
L54.3906 54.6875
L54.3906 -20.7969
L45.4062 -20.7969
z
" id="DejaVuSans-71"/>
      <path d="
M48.7812 52.5938
L48.7812 44.1875
Q44.9688 46.2969 41.1406 47.3438
Q37.3125 48.3906 33.4062 48.3906
Q24.6562 48.3906 19.8125 42.8438
Q14.9844 37.3125 14.9844 27.2969
Q14.9844 17.2812 19.8125 11.7344
Q24.6562 6.20312 33.4062 6.20312
Q37.3125 6.20312 41.1406 7.25
Q44.9688 8.29688 48.7812 10.4062
L48.7812 2.09375
Q45.0156 0.34375 40.9844 -0.53125
Q36.9688 -1.42188 32.4219 -1.42188
Q20.0625 -1.42188 12.7812 6.34375
Q5.51562 14.1094 5.51562 27.2969
Q5.51562 40.6719 12.8594 48.3281
Q20.2188 56 33.0156 56
Q37.1562 56 41.1094 55.1406
Q45.0625 54.2969 48.7812 52.5938" id="DejaVuSans-63"/>
     </defs>
     <g transform="translate(35.25375 148.481916658)rotate(-90.0)scale(0.12 -0.12)">
      <use xlink:href="#DejaVuSans-44"/>
      <use x="77.001953125" xlink:href="#DejaVuSans-6f"/>
      <use x="138.18359375" xlink:href="#DejaVuSans-63"/>
      <use x="193.1640625" xlink:href="#DejaVuSans-75"/>
      <use x="256.54296875" xlink:href="#DejaVuSans-6d"/>
      <use x="353.955078125" xlink:href="#DejaVuSans-65"/>
      <use x="415.478515625" xlink:href="#DejaVuSans-6e"/>
      <use x="478.857421875" xlink:href="#DejaVuSans-74"/>
      <use x="518.06640625" xlink:href="#DejaVuSans-20"/>
      <use x="549.853515625" xlink:href="#DejaVuSans-46"/>
      <use x="600.123046875" xlink:href="#DejaVuSans-72"/>
      <use x="638.986328125" xlink:href="#DejaVuSans-65"/>
      <use x="700.509765625" xlink:href="#DejaVuSans-71"/>
      <use x="763.986328125" xlink:href="#DejaVuSans-75"/>
      <use x="827.365234375" xlink:href="#DejaVuSans-65"/>
      <use x="888.888671875" xlink:href="#DejaVuSans-6e"/>
      <use x="952.267578125" xlink:href="#DejaVuSans-63"/>
      <use x="1007.24804688" xlink:href="#DejaVuSans-79"/>
     </g>
    </g>
   </g>
   <g id="patch_4">
    <path d="
M80.775 23.4
L581.58 23.4" style="fill:none;stroke:#000000;"/>
   </g>
   <g id="patch_5">
    <path d="
M581.58 150.941
L581.58 23.4" style="fill:none;stroke:#000000;"/>
   </g>
   <g id="patch_6">
    <path d="
M80.775 150.941
L581.58 150.941" style="fill:none;stroke:#000000;"/>
   </g>
   <g id="patch_7">
    <path d="
M80.775 150.941
L80.775 23.4" style="fill:none;stroke:#000000;"/>
   </g>
  </g>
 </g>
 <defs>
  <clipPath id="pd60e087a6e">
   <rect height="127.540708317" width="500.805" x="80.775" y="23.4"/>
  </clipPath>
 </defs>
</svg>
